PathFileType        4      (X/Y/Z)      C:\Users\pc\Desktop\IMUTRC\Sujet_01\Sujet_01_velo_80.trc         
DataRate	CameraRate	NumFrames	NumMarkers	Units	OrigDataRate	OrigDataStartFrame	OrigNumFrames
60.0	60.0	4	64	mm	60.0	493	984
Frame#	Time	pHipOrigin			pRightASI			pLeftASI			pRightCSI			pLeftCSI			pRightIschialTub			pLeftIschialTub			pSacrum			pL5SpinalProcess			pL3SpinalProcess			pT12SpinalProcess			pIJ			pT4SpinalProcess			pT8SpinalProcess			pPX			pC7SpinalProcess			pTopOfHead			pRightAuricularis			pLeftAuricularis			pBackOfHead			pRightAcromion			pLeftAcromion			pRightArmLatEpicondyle			pRightArmMedEpicondyle			pLeftArmLatEpicondyle			pLeftArmMedEpicondyle			pRightUlnarStyloid			pRightRadialStyloid			pRightOlecranon			pLeftUlnarStyloid			pLeftRadialStyloid			pLeftOlecranon			pRightTopOfHand			pRightPinky			pRightBallHand			pLeftTopOfHand			pLeftPinky			pLeftBallHand			pRightGreaterTrochanter			pRightKneeLatEpicondyle			pRightKneeMedEpicondyle			pRightPatella			pLeftGreaterTrochanter			pLeftKneeLatEpicondyle			pLeftKneeMedEpicondyle			pLeftPatella			pRightTibialTub			pRightLatMalleolus			pRightMedMalleolus			pLeftTibialTub			pLeftLatMalleolus			pLeftMedMalleolus			pRightHeelFoot			pRightFirstMetatarsal			pRightFifthMetatarsal			pRightPivotFoot			pRightHeelCenter			pRightToe			pLeftHeelFoot			pLeftFirstMetatarsal			pLeftFifthMetatarsal			pLeftPivotFoot			pLeftHeelCenter			pLeftToe			
		X1	Y1	Z1	X2	Y2	Z2	X3	Y3	Z3	X4	Y4	Z4	X5	Y5	Z5	X6	Y6	Z6	X7	Y7	Z7	X8	Y8	Z8	X9	Y9	Z9	X10	Y10	Z10	X11	Y11	Z11	X12	Y12	Z12	X13	Y13	Z13	X14	Y14	Z14	X15	Y15	Z15	X16	Y16	Z16	X17	Y17	Z17	X18	Y18	Z18	X19	Y19	Z19	X20	Y20	Z20	X21	Y21	Z21	X22	Y22	Z22	X23	Y23	Z23	X24	Y24	Z24	X25	Y25	Z25	X26	Y26	Z26	X27	Y27	Z27	X28	Y28	Z28	X29	Y29	Z29	X30	Y30	Z30	X31	Y31	Z31	X32	Y32	Z32	X33	Y33	Z33	X34	Y34	Z34	X35	Y35	Z35	X36	Y36	Z36	X37	Y37	Z37	X38	Y38	Z38	X39	Y39	Z39	X40	Y40	Z40	X41	Y41	Z41	X42	Y42	Z42	X43	Y43	Z43	X44	Y44	Z44	X45	Y45	Z45	X46	Y46	Z46	X47	Y47	Z47	X48	Y48	Z48	X49	Y49	Z49	X50	Y50	Z50	X51	Y51	Z51	X52	Y52	Z52	X53	Y53	Z53	X54	Y54	Z54	X55	Y55	Z55	X56	Y56	Z56	X57	Y57	Z57	X58	Y58	Z58	X59	Y59	Z59	X60	Y60	Z60	X61	Y61	Z61	X62	Y62	Z62	X63	Y63	Z63	X64	Y64	Z64	
493	8.2	0.0	1249.99432	7.654007714701862E-14	20.437829999999984	1331.26756	143.6026400000001	97.16932000000001	1347.76124	-93.0458999999999	-11.533630000000015	1395.09095	114.32037000000008	51.512890000000006	1408.59665	-80.25731999999992	-64.71979	1195.73248	29.282270000000068	-33.16664999999999	1202.48533	-68.06633999999993	-58.44502	1270.91023	-17.509599999999928	-23.12702	1364.85253	-0.8963999999999193	22.469659999999998	1459.8705	23.246540000000092	68.90297	1543.89268	47.8077900000001	281.88666	1576.16294	147.1284600000001	184.65757	1668.31245	107.08944000000012	125.67471999999998	1618.11427	77.09005000000012	204.01973	1503.85366	107.20896000000012	215.37407999999996	1693.82985	124.00144000000013	349.53467	1879.80214	158.72185000000016	310.15301	1792.37365	222.48548000000014	340.09264	1784.84393	94.36062000000015	276.50828	1801.63641	146.29182000000014	158.48280999999997	1650.74309	284.2770500000001	281.40858	1652.41636	-47.150429999999865	240.17435999999995	1436.98252	356.5265600000002	225.59298999999996	1410.62848	311.8262800000001	400.39021	1438.47652	-53.186159999999866	360.94878	1409.73209	-30.238419999999874	335.4911399999999	1272.22494	439.7718700000001	365.1917199999999	1272.46398	407.3223400000001	216.74854999999994	1427.77952	350.5505900000001	541.36342	1288.12103	-62.44891999999986	544.53068	1288.24055	-18.585279999999855	377.98031	1428.01856	-64.42098999999988	502.34030999999993	1264.2769	496.60338000000013	421.66466999999994	1259.85468	497.9180900000001	371.88480999999996	1257.76309	451.7835800000001	694.10929	1241.03036	18.16696000000016	641.9988	1257.10573	-41.473249999999844	575.24718	1268.2808	-46.61258999999985	-38.305990000000016	1229.07841	144.14047000000008	194.09960999999998	1004.44158	266.88696000000004	229.77616999999998	1002.17071	209.99570000000008	232.64463999999998	1033.42505	247.5248100000001	56.59247000000001	1240.01445	-137.6266599999999	335.19234	1043.58421	-79.5999599999999	327.66261	1043.46469	-12.788579999999895	350.31155	1075.85446	-41.712289999999896	230.49328999999997	954.30317	250.93112000000008	-17.868160000000017	682.57566	156.80954000000003	13.147139999999988	678.75104	105.35641000000004	380.66949	1015.73617	-46.911389999999884	323.30015	642.2976	-87.12968999999991	325.98934	640.26577	-27.07115999999992	-92.08975	596.70093	52.23001000000002	29.76034999999998	482.26104	134.93748000000002	-33.22641000000002	492.30067	195.89240000000004	11.653149999999979	471.98237	180.05607000000003	-71.53240000000001	568.85289	78.10597000000001	50.25792999999997	430.38959	226.84794000000002	262.70378	510.52739	-38.186469999999936	431.34575	502.10127	40.87566000000008	447.48088	482.08176	-43.50508999999992	463.55624	489.79077	5.139340000000087	304.35632	503.95382	-28.684669999999933	535.50696	485.78686	19.84023000000009	
494	8.217	0.0	1249.99432	7.654007714701862E-14	19.30238999999998	1331.26756	143.7819200000001	98.06572000000001	1347.58196	-92.2092699999999	-12.370260000000014	1395.15071	114.20085000000009	52.409290000000006	1408.53689	-79.83899999999991	-65.01859	1195.79224	28.684670000000068	-32.628809999999994	1202.54509	-68.30536999999993	-58.26574	1271.02975	-17.98767999999993	-23.06726	1364.85253	-0.9561599999999192	22.469659999999998	1459.8705	23.366060000000093	68.72369	1543.95244	48.046820000000096	282.1257	1576.5215	146.4113400000001	184.35877	1668.49173	107.20896000000013	125.37591999999998	1618.17403	77.32909000000011	204.25877	1504.0927	106.67112000000012	215.13503999999998	1694.06889	123.88193000000012	348.81756	1880.4595	157.46689000000018	309.49565	1793.32981	221.70861000000014	339.8536	1784.96345	93.70326000000016	276.0302	1801.99497	145.33567000000014	158.36328999999998	1650.44429	284.3965700000001	281.10978	1652.83468	-47.150429999999865	240.29387999999994	1436.863	356.1082400000002	225.83202999999997	1410.62848	311.2884500000001	400.68901	1439.31315	-53.72399999999986	361.30734	1410.38944	-30.836019999999873	335.61065999999994	1272.04566	439.1742700000001	365.13195999999994	1272.10542	406.6052200000001	216.98758999999995	1427.77952	350.1322700000001	541.2439	1288.53935	-63.52459999999986	544.47092	1288.47959	-19.660949999999854	378.27911	1428.8552	-64.95882999999988	502.51958999999994	1263.50002	495.58746000000014	421.84394999999995	1259.3766	497.08145000000013	371.94456999999994	1257.40453	451.0664600000001	693.75073	1240.61204	17.151040000000158	641.81953	1256.98621	-42.489169999999845	575.0679	1268.46008	-47.688269999999854	-38.24623000000001	1230.21385	144.25999000000007	203.60140999999996	1018.3656	271.5482200000001	239.15844999999996	1016.21425	214.59720000000007	240.83171999999996	1048.4845	251.3494300000001	55.636310000000016	1238.75949	-137.9852199999999	321.38784	1023.68421	-86.1735299999999	314.63499	1023.02686	-19.302389999999896	339.01696	1054.34096	-48.106579999999894	238.50108999999998	968.10766	254.9350200000001	-15.776570000000019	702.59517	158.96089000000006	15.059449999999988	698.41199	107.50776000000005	368.00043	996.13498	-53.36543999999989	314.99355	621.62074	-89.28103999999992	317.92178	620.24626	-29.22250999999992	-89.57984	615.22644	55.03871000000002	32.92760999999999	502.22079	138.70234000000002	-30.178660000000026	512.37995	199.47799000000003	14.880169999999977	492.24092	183.88070000000002	-68.84321000000001	587.67721	81.15372000000004	53.72399999999997	451.24574	231.03113000000002	252.72391	490.9262	-40.99517999999994	421.06707	479.93041	38.545030000000075	437.14244	459.97066	-45.89546999999992	453.15805	467.32111	2.808710000000084	294.31668	483.75503	-31.373859999999937	525.04901	462.30129	17.688880000000093	
495	8.233	0.0	1249.99432	7.654007714701862E-14	18.226719999999982	1331.2078	143.96120000000008	99.02188000000001	1347.40268	-91.3726299999999	-13.087380000000014	1395.15071	114.14109000000009	53.36544000000001	1408.47713	-79.36091999999991	-65.37715	1195.91176	28.14683000000007	-32.15073999999999	1202.60485	-68.60416999999993	-58.08646	1271.08951	-18.46575999999993	-22.94774	1364.85253	-0.9561599999999192	22.469659999999998	1459.8705	23.545330000000092	68.60417	1543.89268	48.345620000000096	282.4245	1576.99958	145.6344700000001	184.11974	1668.73077	107.32848000000013	125.13687999999999	1618.29355	77.62789000000011	204.67708	1504.3915	106.07352000000012	214.89599999999996	1694.36769	123.82217000000013	348.21996	1881.11685	155.91314000000017	309.01758	1794.40548	220.75245000000015	339.61456	1785.14272	92.86662000000015	275.67165	1802.41329	144.25999000000013	158.42304999999996	1650.08573	284.51609000000013	280.87074	1653.31275	-47.150429999999865	240.47315999999995	1436.74348	355.6899300000002	226.19058999999996	1410.56872	310.7506100000001	401.04756	1440.20955	-54.44111999999986	361.78542	1411.16632	-31.55313999999987	335.78993999999994	1271.80662	438.5766800000001	365.1917199999999	1271.6871	405.8881000000001	217.28638999999995	1427.77952	349.7139500000001	541.2439	1288.95767	-64.54050999999984	544.41116	1288.71863	-20.676869999999855	378.69742	1429.81136	-65.67594999999987	502.7586299999999	1262.60362	494.57154000000014	422.08298999999994	1258.779	496.3045800000001	372.06408999999996	1256.98621	450.40910000000014	693.45193	1240.19373	16.25465000000016	641.64025	1256.86669	-43.44532999999984	574.94838	1268.63936	-48.70417999999985	-38.186470000000014	1231.34928	144.3795100000001	212.92392999999998	1033.24577	275.91068000000007	248.36144999999996	1031.15418	218.84014000000008	248.77976999999998	1064.44035	254.81550000000007	54.62040000000001	1237.8631	-138.34377999999992	306.50767	1005.21846	-93.2251799999999	300.41217	1003.90374	-26.294279999999905	326.46742	1034.02265	-54.8594299999999	246.68817999999996	982.92808	258.8194000000001	-11.83243000000002	721.77805	162.12815000000006	18.824319999999986	717.47535	110.55550000000004	354.01665	977.66922	-60.0585299999999	305.07343	602.25858	-92.62758999999991	308.06142	601.48171	-32.569049999999926	-84.56002000000001	632.37749	59.102380000000025	39.202379999999984	521.9415	144.25999000000002	-24.083170000000024	532.0409	204.91612000000003	21.214699999999976	512.26043	189.55787000000004	-63.52460000000001	605.42585	85.51618000000003	60.536609999999975	472.28116	237.30590000000004	240.17436	473.05804	-45.47715999999994	407.97969	458.05835	34.42161000000008	423.93554	438.45716	-50.138419999999925	439.95115	445.09049	-1.3744699999999188	281.5281	464.99048	-35.85583999999994	511.72259	438.45716	13.684980000000088	
496	8.25	0.0	1249.99432	7.654007714701862E-14	17.330319999999983	1331.26756	144.02095000000008	99.91827000000002	1347.16365	-90.7152699999999	-13.684980000000014	1395.21047	113.96181000000009	54.26184000000001	1408.29785	-79.06212999999991	-65.67595	1196.03128	27.668760000000066	-31.732419999999994	1202.60485	-68.84320999999993	-57.90718	1271.20903	-18.94383999999993	-22.76846	1364.85253	-1.0756799999999194	22.529419999999995	1459.8705	23.545330000000092	68.54441	1543.95244	48.4651400000001	282.78305	1577.35814	144.8575900000001	183.94046	1668.85029	107.38824000000012	125.01735999999998	1618.35331	77.80717000000011	205.03564	1504.63054	105.47593000000012	214.71671999999998	1694.54697	123.70265000000013	347.80164	1881.65469	154.41915000000014	308.71878	1795.30188	219.85606000000016	339.43528	1785.20248	92.02999000000015	275.43261	1802.71209	143.30384000000015	158.36328999999998	1649.78693	284.4563300000001	280.81098	1653.73107	-47.26994999999987	240.77195999999995	1436.62397	355.15209000000016	226.60890999999998	1410.56872	310.0932500000001	401.40612	1440.98643	-55.217989999999865	362.20374	1411.76392	-32.449529999999875	335.96921999999995	1271.56758	437.91932000000014	365.31123999999994	1271.38831	405.17099000000013	217.70469999999995	1427.71977	349.17612000000014	541.42317	1289.37598	-65.55642999999985	544.53068	1289.01743	-21.692779999999853	379.1755	1430.52847	-66.51257999999987	503.05742999999995	1261.82675	493.6153900000001	422.3220299999999	1258.24116	495.4679400000001	372.18360999999993	1256.68741	449.6322300000001	693.33241	1240.01445	15.418010000000162	641.64025	1256.80693	-44.341719999999846	575.00814	1268.8784	-49.72009999999985	-38.007190000000016	1232.78352	144.55879000000007	221.58908999999997	1048.90282	280.09387000000004	256.84733	1046.75147	222.9635600000001	256.01068999999995	1080.93404	258.04252000000014	53.54472000000001	1237.08622	-138.7023399999999	291.80677	989.44189	-100.0377899999999	286.48816	987.46982	-33.0471299999999	313.85811	1016.45329	-61.4927599999999	254.81549999999996	998.52537	262.6440200000001	-5.557660000000021	739.10837	166.25158000000005	24.919809999999984	734.68615	114.61917000000004	340.4512	961.41457	-66.6918599999999	294.25692	585.52586	-97.10956999999992	297.48395	585.04778	-36.99126999999993	-76.73150000000001	647.07838	64.36123000000003	48.70417999999998	540.10846	151.49092000000002	-14.880170000000026	550.08834	211.84825000000004	30.776259999999976	530.8457	196.90832000000003	-55.27775000000001	620.90362	91.31287000000005	70.69575999999998	492.30067	245.31370000000004	226.07107	458.11811	-51.63240999999994	393.15928	437.68028	28.68467000000008	408.81633	418.61693	-56.054629999999925	424.8917	424.2941	-7.171169999999922	267.18576	448.85535	-41.89156999999994	496.36434	415.62894	8.067560000000086	
